# xmcd CD Database Entry
#
# Track frame offsets:
# 150
# 31787
# 57546
# 117683
# 143974
# 166926
# 189229
# 230912
#
# Disc length: 3535 seconds
#
# Revision: 1
# Processed by: cddbd v1.4PL0 Copyright (c) Steve Scherf et al.
# Submitted via: tcd 2.0b
#
DISCID=710dcd08
DTITLE=Cinematic Orchestra - Motion
DYEAR=1900
DGENRE=
TTITLE0=Durian
TTITLE1=Ode to the Big Sea
TTITLE2=Night of the Iguana
TTITLE3=Channel 1 Suite
TTITLE4=Bluebirds
TTITLE5=And Relax!
TTITLE6=Diabolus
TTITLE7=Channel 1 Suite Fourtet Mix
EXTD=
EXTT0=
EXTT1=
EXTT2=
EXTT3=
EXTT4=
EXTT5=
EXTT6=
EXTT7=
PLAYORDER=
